<svg xmlns="http://www.w3.org/2000/svg" width="15" height="27">
  <path d="M1.31,14.19h2.87v11.43c0,0.23 0.19,0.41 0.42,0.41h4.86c0.23,0 0.42,-0.18 0.42,-0.41v-11.38h3.29c0.21,0 0.39,-0.16 0.42,-0.36l0.5,-4.21c0.01,-0.12 -0.02,-0.23 -0.1,-0.32c-0.08,-0.09 -0.19,-0.14 -0.31,-0.14h-3.79v-2.64c0,-0.79 0.44,-1.2 1.31,-1.2c0.12,0 2.48,0 2.48,0c0.23,0 0.42,-0.18 0.42,-0.41v-3.86c0,-0.23 -0.19,-0.41 -0.42,-0.41h-3.42c-0.02,0 -0.08,0 -0.16,0c-0.59,0 -2.65,0.11 -4.28,1.56c-1.8,1.61 -1.55,3.54 -1.49,3.87v3.08h-3.01c-0.23,0 -0.42,0.18 -0.42,0.41v4.15c0,0.23 0.19,0.41 0.42,0.41z" />
</svg>