<svg xmlns="http://www.w3.org/2000/svg" width="16" height="26">
  <path d="M6.68 18.02C4.78 17.81 3.07 17.33 1.61 16.14C1.42 16 1.24 15.85 1.07 15.69C0.43 15.05 0.36 14.32 0.87 13.57C1.31 12.93 2.03 12.76 2.79 13.13C2.94 13.2 3.08 13.29 3.21 13.38C5.94 15.32 9.69 15.38 12.43 13.47C12.7 13.26 12.99 13.08 13.33 12.99C13.98 12.82 14.59 13.07 14.94 13.66C15.34 14.33 15.34 14.99 14.85 15.52C14.09 16.32 13.18 16.9 12.16 17.31C11.21 17.69 10.16 17.89 9.12 18.01C9.28 18.19 9.35 18.28 9.45 18.38C10.86 19.84 12.27 21.3 13.68 22.77C14.16 23.27 14.26 23.89 13.99 24.47C13.7 25.11 13.06 25.53 12.43 25.48C12.03 25.45 11.71 25.25 11.44 24.96C10.37 23.85 9.29 22.76 8.25 21.64C7.94 21.31 7.8 21.37 7.53 21.66C6.46 22.8 5.37 23.92 4.28 25.03C3.79 25.53 3.2 25.62 2.63 25.34C2.03 25.03 1.64 24.39 1.67 23.75C1.69 23.32 1.9 22.98 2.19 22.69C3.58 21.25 4.97 19.8 6.37 18.36C6.46 18.27 6.54 18.16 6.68 18.02ZM7.83 13C4.45 12.99 1.67 10.09 1.69 6.58C1.71 3.04 4.49 0.19 7.91 0.19C11.33 0.2 14.08 3.1 14.06 6.68C14.05 10.18 11.25 13.01 7.83 13ZM10.91 6.59C10.9 4.85 9.56 3.47 7.88 3.47C6.19 3.46 4.84 4.87 4.85 6.63C4.86 8.36 6.22 9.74 7.9 9.73C9.58 9.73 10.92 8.33 10.91 6.59Z" />
</svg>