<svg xmlns="http://www.w3.org/2000/svg" width="23" height="18">
	<path d="M22.14,2.09c-0.35,0.15 -0.7,0.28 -1.06,0.38c0.43,-0.48 0.76,-1.05 0.96,-1.67c0.05,-0.14 0,-0.29 -0.12,-0.38c-0.12,-0.09 -0.28,-0.1 -0.4,-0.03c-0.77,0.45 -1.6,0.78 -2.48,0.97c-0.88,-0.85 -2.07,-1.34 -3.31,-1.34c-2.61,0 -4.72,2.1 -4.72,4.69c0,0.2 0.01,0.41 0.04,0.6c-3.23,-0.28 -6.24,-1.86 -8.3,-4.37c-0.07,-0.09 -0.19,-0.14 -0.3,-0.13c-0.12,0.01 -0.22,0.07 -0.28,0.17c-0.42,0.71 -0.64,1.53 -0.64,2.36c0,1.13 0.41,2.2 1.13,3.04c-0.22,-0.08 -0.43,-0.17 -0.63,-0.28c-0.11,-0.06 -0.24,-0.06 -0.35,0c-0.11,0.06 -0.18,0.17 -0.18,0.3c0,0.02 0,0.04 0,0.06c0,1.68 0.91,3.2 2.31,4.03c-0.12,-0.01 -0.24,-0.03 -0.36,-0.05c-0.12,-0.02 -0.25,0.02 -0.33,0.11c-0.08,0.09 -0.11,0.22 -0.07,0.34c0.52,1.6 1.85,2.78 3.46,3.14c-1.34,0.83 -2.86,1.26 -4.47,1.26c-0.33,0 -0.67,-0.02 -1,-0.06c-0.16,-0.02 -0.32,0.08 -0.38,0.23c-0.06,0.15 0,0.33 0.14,0.42c2.06,1.31 4.44,2 6.89,2c4.81,0 7.82,-2.25 9.49,-4.14c2.09,-2.35 3.29,-5.47 3.29,-8.54c0,-0.13 0,-0.26 -0.01,-0.39c0.83,-0.62 1.54,-1.36 2.11,-2.22c0.09,-0.13 0.08,-0.3 -0.02,-0.42c-0.1,-0.12 -0.27,-0.16 -0.42,-0.1z" />
</svg>