<svg xmlns="http://www.w3.org/2000/svg" width="46" height="94" viewBox="0 0 134 276">
  <style>
    .shp1{fill:#595b61}.shp2{fill:#f9c9c0}.shp3{fill:#ff7322}.shp4{fill:#fff}
  </style>
  <g id="Page 1" clip-path="url(#cp1)">
    <path id="Path 1" fill="#ffd13e" d="M33.17 77.88c1.21 2.01 2.57 3.94 4.04 5.77 2.66 3.35 5.93 7.5 9.73 9.57 3.68 2.01 5.94 3.39 8.24 7.21 2.27 3.78 3.73 8.06 4.35 12.42 1.45 10.21-2.61 22.53 1.96 32.12 3.86 8.11 17.69 7.17 24.83 5.41 9.81-2.42 19.12-11.29 19.52-22.08.18-4.68-1.8-8.85-2.63-13.25-.84-4.52.32-9.02 2.33-13.12 2.21-4.5 5.15-8.98 6.18-13.95 1.2-5.82.2-12.88-2.32-18.3-2.23-4.77-5.87-8.77-7.91-13.58-2.13-5.06.35-9.77-.82-14.67-.81-3.34-3.26-6.32-6-8.3-2.92-2.1-6.46-3.29-10.04-3.53-.94-.07-11.27 1.01-10.81 2.16-5.53-13.71-27.96-6.52-31.8 5.94-20.06-2.21-31.58 29.74-11.72 34.59.57.14 2.42 4.88 2.86 5.6z"/>
    <path id="Path 2" d="M29.86 73.78c-6.42-1.59-9.88-5.77-11.02-10.82-.6-2.69-.53-5.61.12-8.51.65-2.86 1.86-5.7 3.53-8.25 3.96-6.03 10.53-10.54 18.46-10.16 2.07-5.14 6.97-9.31 12.46-11.52 2.22-.89 4.55-1.48 6.84-1.68 2.33-.21 4.61-.02 6.71.63 3.11.96 5.77 2.9 7.52 6.04.68-.21 1.55-.41 2.49-.58 3.07-.56 7.17-.93 7.78-.89l.05.01c1.93.14 3.86.53 5.69 1.18 1.8.63 3.52 1.52 5.09 2.64 1.57 1.13 3.05 2.57 4.24 4.21 1.09 1.51 1.93 3.2 2.37 4.99l.01.08c.56 2.39.36 4.62.15 6.86-.23 2.51-.46 5.03.58 7.49 1.02 2.41 2.49 4.65 3.98 6.91 1.41 2.15 2.83 4.3 3.91 6.62.01.03.03.06.04.09 1.32 2.87 2.24 6.17 2.67 9.52.42 3.29.36 6.63-.27 9.67-.81 3.94-2.7 7.48-4.56 10.95-.61 1.14-1.21 2.28-1.75 3.38-.95 1.93-1.69 3.95-2.1 6.01-.4 2.02-.48 4.08-.1 6.13.27 1.44.69 2.91 1.1 4.39.83 2.94 1.67 5.9 1.55 9.21-.21 5.55-2.59 10.61-6.16 14.65-3.86 4.37-9.13 7.56-14.55 8.89-4.35 1.07-11.1 1.85-16.78.61-4.28-.93-8-2.99-9.84-6.87-2.97-6.22-2.52-13.31-2.08-20.31.27-4.24.53-8.45-.01-12.26l-.01-.05c-.3-2.09-.8-4.15-1.5-6.15-.69-1.97-1.57-3.87-2.64-5.64-1.04-1.73-2.07-2.91-3.25-3.87-1.23-1-2.64-1.81-4.39-2.77-4.05-2.21-7.4-6.44-10.13-9.88l-.08-.09-.07-.1c-.74-.94-1.46-1.88-2.13-2.84a52.75 52.75 0 0 1-1.96-3c-.02-.04-.05-.08-.07-.12-.2-.36-.47-.99-.8-1.72-.59-1.34-.66-2.96-1.02-3.05zm.89-3c.42.12.75.41.94.77.79.98 1.53 2.68 2.14 4.04.3.67.55 1.24.65 1.44l.03.04c.6 1 1.22 1.94 1.83 2.83.65.93 1.32 1.82 2.01 2.69.03.03.05.06.08.09l.07.09c2.56 3.22 5.7 7.18 9.18 9.08 1.93 1.05 3.48 1.94 4.88 3.08 1.44 1.18 2.69 2.61 3.95 4.69 1.18 1.96 2.15 4.05 2.91 6.22.77 2.19 1.32 4.45 1.65 6.73l.01.05c.59 4.13.31 8.5.03 12.9-.41 6.59-.83 13.27 1.79 18.76 1.36 2.86 4.27 4.41 7.68 5.15 5.16 1.12 11.35.4 15.37-.59 4.82-1.19 9.51-4.03 12.95-7.93 3.12-3.53 5.2-7.92 5.38-12.69.1-2.81-.67-5.54-1.44-8.25-.43-1.53-.87-3.05-1.16-4.66v-.01c-.46-2.47-.38-4.92.09-7.3.47-2.34 1.31-4.63 2.37-6.8.58-1.18 1.19-2.32 1.8-3.47 1.75-3.28 3.53-6.62 4.25-10.11.56-2.7.61-5.69.23-8.65-.38-3.02-1.22-6-2.41-8.59l-.04-.08c-1.02-2.2-2.35-4.22-3.68-6.23-1.56-2.38-3.12-4.75-4.24-7.41-1.34-3.18-1.07-6.09-.81-8.98.18-1.99.36-3.97-.08-5.87l-.01-.05c-.33-1.38-1-2.7-1.87-3.9-.98-1.36-2.22-2.55-3.52-3.5-1.31-.94-2.77-1.68-4.31-2.23-1.57-.55-3.22-.89-4.88-1.01h-.06c-.5-.04-4.14.32-6.98.84-.91.17-1.71.35-2.25.53-.01 0-.02-.02-.02-.07l-.02-.06c-.16.35-.45.65-.84.81-.8.32-1.71-.07-2.03-.87-1.27-3.16-3.58-5.03-6.33-5.88-1.7-.53-3.59-.67-5.52-.5-1.97.17-3.99.68-5.95 1.47-5.09 2.05-9.56 5.96-11.05 10.67-.19.74-.9 1.24-1.68 1.15-7.16-.79-13.16 3.22-16.74 8.67-1.48 2.25-2.54 4.74-3.1 7.23-.55 2.45-.62 4.91-.12 7.13.89 3.94 3.63 7.21 8.74 8.48l.06.01c.02.01.04.01.06.02z" class="shp1"/>
    <path id="Path 3" d="M112.42 148.21c7.48 9.71 8.37 7.88 8.09 2.64 6.5 1.53 12.22-1.46 11.56-9.15-13.38 1.25-32.19-11.87-38.8-17.81-6.61-5.94-13.04-16.23-20.97-16.19L71.16 122c2.7 4.12 15.08 18.05 41.26 26.22z" class="shp2"/>
    <path id="Path 4" d="M86.66 119.35c1.86 2.02 3.7 4.03 5.57 5.71 4.02 3.61 12.46 9.83 21.51 13.98 5.63 2.58 11.51 4.38 16.81 4.31-.03.59-.1 1.14-.22 1.64-.34 1.44-1.05 2.54-2.02 3.3-.99.78-2.28 1.23-3.75 1.35-1.15.1-2.41-.01-3.7-.31a1.567 1.567 0 0 0-1.91 1.72c.11 1.49.89 2.56.55 2.53-.68-.06-2.41-1.85-5.85-6.32-.2-.26-.48-.44-.77-.54-9.88-3.08-17.77-7-23.88-10.89-9.76-6.2-14.93-12.26-16.53-14.7-.47-.72-1.44-.93-2.17-.45-.72.47-.93 1.44-.45 2.17 1.73 2.63 7.25 9.13 17.47 15.63 6.21 3.95 14.19 7.93 24.16 11.08 3.86 4.96 6.23 7 7.75 7.13 2.1.19 2.78-1.4 2.86-3.98.93.1 1.85.12 2.72.05 2.06-.18 3.92-.85 5.41-2.02 1.52-1.19 2.63-2.87 3.14-5.05.29-1.22.39-2.6.26-4.12h-.01v-.01a1.56 1.56 0 0 0-1.7-1.41c-5.09.48-11.1-1.29-16.89-3.95-8.72-4-16.85-9.99-20.72-13.47-1.78-1.6-3.56-3.54-5.36-5.5-5.03-5.48-10.22-11.12-16.66-11.1-.86 0-1.56.71-1.55 1.57 0 .86.7 1.56 1.57 1.55 5.05-.02 9.77 5.11 14.34 10.09z" class="shp1"/>
    <path id="Path 5" d="M71.1 105.54c1.07-5.12-10.57-9.82-15.86-8.6-5.15 1.18-7.53 6.45-8.03 11.28-.2 1.98-.37 3.96-.45 5.95-.4 9.83 3.54 29.13 17.53 20.38 8.26-5.18 4.84-19.54 6.82-29zm-30.74 21.52l3.5-19.56-8.18 3.42-12.66 13.46-6.8-.81c-3-1.41-3.89-4.6-3.45-7.52.27-1.8 1.86-5.46.41-7.04-1.8-1.96-5.07 1.27-5.9 2.84-1.2 2.27-1.22 5.09-.61 7.53.32 1.25.81 2.46 1.51 3.54.29.45 2.39 2.26 2.4 2.54.15 7.48 4.72 19.85 4.94 20.25.55.94 12.44.26 24.83-18.64z" class="shp2"/>
    <path id="Path 6" d="M14.75 120c-.51-1.11-.62-2.44-.43-3.73.05-.38.19-.9.34-1.47.59-2.22 1.33-5.04-.33-6.86-.29-.31-.6-.56-.94-.73-1.02-.54-2.12-.47-3.18-.05-.85.34-1.67.92-2.37 1.56-.86.79-1.58 1.71-1.94 2.4-.67 1.27-1.03 2.67-1.15 4.09-.12 1.54.04 3.1.4 4.55v.01c.18.71.42 1.41.72 2.11.28.65.62 1.29 1.01 1.9l.09.12c.27.35.75.82 1.25 1.3.4.38.79-.21.8.29.05 2.72.65 6.01 1.42 9.17 1.45 5.92 3.56 11.54 3.72 11.82l.01.01c.14.24.33.44.58.6.58.38 2.07.59 4.06.17 1.67-.36 3.91-1.15 6.49-2.65 4.62-2.68 10.46-7.69 16.37-16.69.47-.72.27-1.69-.45-2.17-.72-.47-1.69-.27-2.17.45-5.59 8.53-11.04 13.22-15.32 15.7-2.26 1.31-4.16 1.99-5.57 2.29-.72.16-1.2.24-1.46.27-.53-1.41-2.06-5.8-3.22-10.55-.72-2.97-1.29-6.04-1.34-8.49-.02-.8-.9-1.66-1.76-2.48-.41-.4-.81-.78-.87-.85l-.01-.02c-.29-.44-.54-.92-.75-1.42a11.333 11.333 0 0 1-.88-5.2c.08-1.02.33-2.01.79-2.88.22-.42.69-1.02 1.28-1.56.45-.41.95-.77 1.41-.96.25-.1.46-.14.57-.08.03.01.06.04.1.09.5.56 0 2.45-.39 3.95-.18.67-.34 1.29-.42 1.81-.27 1.84-.09 3.78.69 5.48.71 1.54 1.89 2.86 3.66 3.68a1.564 1.564 0 0 0 1.33-2.83 4.342 4.342 0 0 1-2.14-2.15zm34.76-14.56c.28-.81-.15-1.7-.97-1.98-.81-.28-1.7.15-1.98.97l-7.67 22.12c-.28.82.15 1.7.97 1.98.81.28 1.7-.15 1.98-.97zm-28.85 19.64a1.568 1.568 0 0 0 2.53 1.85c.04-.05 13.44-18.6 25.1-20.44.85-.14 1.43-.94 1.3-1.79-.13-.85-.93-1.43-1.79-1.3-12.95 2.06-27.09 21.63-27.13 21.68z" class="shp1"/>
    <path id="Path 7" d="M57.4 202.67c.6-11.83 3.25-48.19-14.55-45.45-9.08 1.4-11.03 13.24-9.12 21.58 2.83 12.44 4.09 25.62 5.12 38.47.82 10.3 6.5 29.38 1.26 38.64-1.99 3.5-5.23 6.56-6.98 10.17-.76 1.57-1.62 3.61-.81 5.26 1.22 2.48 5.31 1.25 8.09 1.89 2.43.56 3.69.59 5.15-1.14 3.83-4.53 7.04-8.63 9.2-13.73 2.11-5 .09-11.06.74-16.26 1.65-13.21 1.22-26.19 1.9-39.43z" class="shp2"/>
    <path id="Path 8" d="M59.3 201.31l-.08 1.45c-.24 4.64-.34 9.15-.44 13.66-.19 8.65-.39 17.25-1.47 25.91-.24 1.87-.09 3.94.06 6.03.26 3.61.52 7.26-.94 10.72-1.14 2.69-2.54 5.1-4.15 7.41-1.58 2.27-3.38 4.48-5.33 6.79-1.04 1.23-2.05 1.84-3.3 2.06-1.1.19-2.22.02-3.66-.31-.75-.17-1.71-.18-2.67-.18-2.7-.01-5.35-.02-6.66-2.68-.62-1.26-.62-2.59-.33-3.87.25-1.11.71-2.13 1.13-3 1.04-2.13 2.49-4.01 3.94-5.88 1.13-1.45 2.25-2.91 3.09-4.39 3.52-6.22 1.56-17.92-.07-27.64-.62-3.71-1.2-7.14-1.42-9.95-.51-6.39-1.08-12.87-1.88-19.31-.79-6.4-1.8-12.73-3.18-18.83l-.01-.07c-.15-.65-.27-1.3-.37-1.94-.65-4.22-.41-9.01 1.06-13.01 1.55-4.25 4.45-7.64 9.05-8.69h.01c.32-.07.62-.13.89-.17 10.16-1.56 14.5 7.31 16.19 18.29 1.5 9.72.89 21.14.54 27.61zm-3.73 1.27l.08-1.45c.34-6.32.93-17.48-.51-26.88-1.39-9.01-4.67-16.34-12.01-15.21-.25.04-.45.08-.62.11-3.21.73-5.28 3.22-6.43 6.36-1.24 3.4-1.44 7.53-.87 11.22.09.59.2 1.15.32 1.67l.01.07c1.43 6.29 2.46 12.73 3.25 19.19.8 6.47 1.38 13.01 1.9 19.47.22 2.7.77 6.03 1.38 9.64 1.73 10.3 3.81 22.7-.36 30.06-.97 1.71-2.17 3.26-3.38 4.82-1.33 1.72-2.67 3.45-3.54 5.24v.01c-.34.7-.7 1.49-.86 2.2-.12.54-.15 1.06.04 1.45.31.64 1.83.64 3.37.65 1.18 0 2.37.01 3.48.26.99.23 1.72.35 2.22.27.36-.06.7-.3 1.12-.8 1.88-2.22 3.6-4.33 5.12-6.52 1.49-2.14 2.77-4.34 3.79-6.74 1.11-2.63.88-5.85.66-9.03-.16-2.28-.32-4.54-.05-6.74 1.07-8.59 1.27-17.04 1.46-25.53.1-4.6.21-9.22.44-13.77z" class="shp1"/>
    <path id="Path 9" d="M83.13 184.05c-6.04-8.31-16.89-26.47-26.36-26.99-12.87-.7-4.12 21.72-.24 29.59 8.42 17.13 23.24 23.11 31.23 41.32 2.59 5.91 4.4 12.85 5.48 19.25.98 5.78.55 12 .12 18.17-.18 2.7-.5 7 1.93 8.37 1.4.8 3.19-.39 4.75-1.27 1.87-1.05 3.77-1.88 5.23-3.53 2.96-3.36 3.78-19.14 2.35-21.99-1.95-3.92-2.01-8.79-3.18-13.09-5.13-18.69-10.42-34.85-21.32-49.84z" class="shp2"/>
    <path id="Path 10" d="M81.49 178.53c1.1 1.6 2.12 3.07 3.12 4.45 5.54 7.62 9.65 15.54 13.03 23.93 3.35 8.31 5.98 17.09 8.56 26.51.47 1.72.76 3.43 1.05 5.13.45 2.69.91 5.39 2.01 7.62.92 1.85 1.1 7.75.52 13.19-.49 4.57-1.52 9-3.13 10.82-1.41 1.6-3.03 2.47-4.69 3.36-.3.16-.6.32-.97.53l-.03.02-.42.24v-.01c-1.88 1.08-3.95 2.28-6.13 1.03-3.42-1.93-3.08-6.86-2.86-10.02l.01-.07.01-.12c.41-6.03.83-12.1-.11-17.63-.56-3.29-1.31-6.74-2.28-10.12-.86-3.03-1.89-5.99-3.08-8.7-4.03-9.17-9.92-15.22-15.8-21.25-5.6-5.74-11.18-11.47-15.34-19.9-.02-.03-.04-.06-.05-.1-1.82-3.69-4.68-10.5-6-16.76-.69-3.28-.96-6.45-.46-9.03.58-2.99 2.12-5.22 5.07-6.11.97-.29 2.09-.41 3.37-.34 8.9.49 18.18 13.94 24.63 23.29zm.15 6.6c-.88-1.2-1.97-2.79-3.16-4.52-6.03-8.74-14.71-21.33-21.8-21.72-.84-.05-1.55.03-2.13.2-1.43.43-2.2 1.63-2.52 3.28-.4 2.06-.15 4.74.45 7.59 1.24 5.9 3.96 12.37 5.69 15.88.01.03.03.06.04.09 3.9 7.9 9.29 13.43 14.69 18.97 6.11 6.27 12.24 12.55 16.53 22.34 1.27 2.89 2.35 6 3.25 9.16a99.64 99.64 0 0 1 2.36 10.52c1.01 5.96.58 12.23.15 18.47l-.01.12-.01.07c-.15 2.26-.4 5.79 1.01 6.59.37.21 1.49-.43 2.51-1.02v-.01l.42-.24.05-.03c.3-.17.66-.37 1.03-.56 1.37-.74 2.71-1.46 3.68-2.56 1.06-1.21 1.82-4.87 2.24-8.79.52-4.87.49-9.89-.15-11.17h-.01c-1.34-2.7-1.84-5.68-2.34-8.65-.28-1.65-.56-3.3-.96-4.78-2.55-9.27-5.13-17.92-8.43-26.11-3.27-8.11-7.25-15.77-12.6-23.14z" class="shp1"/>
    <path id="Path 11" d="M77.08 145.96l-36.65-.89s-19.75 9.85-20.74 67.36c2.18 10.45 11.4 13.73 25.25 10.21 4.33 6.42 22.23 7.08 33.78.04 13.08 3.46 21.6-5.85 24.85-12.87-7.9-20.58-1.31-45.59-26.48-63.85z" class="shp3"/>
    <path id="Path 12" d="M18.13 212.41c0 .12.01.23.03.34.07.33.14.63.2.89v.01c1.3 5.13 4.26 8.59 8.62 10.42 4.18 1.76 9.62 1.95 16.06.61.44-.09.87-.19 1.29-.28 2.86 3.16 8.68 4.87 15.25 4.87 6.39.01 13.58-1.56 19.38-4.92 5.73 1.36 10.63.43 14.66-1.66 5.55-2.87 9.38-7.96 11.36-12.23.18-.4.19-.83.04-1.21-2.44-6.35-3.47-13.22-4.52-20.17-2.35-15.55-4.76-31.52-22.5-44.39a1.568 1.568 0 0 0-1.84 2.54c16.68 12.1 18.99 27.42 21.24 42.32 1.04 6.9 2.07 13.72 4.46 20.19-1.81 3.64-5.08 7.8-9.67 10.18-3.55 1.84-7.92 2.61-13.08 1.25-.4-.1-.83-.05-1.21.18-5.38 3.28-12.23 4.81-18.32 4.8-6.13-.01-11.38-1.53-13.32-4.35-.35-.56-1.04-.85-1.71-.68-.78.2-1.49.37-2.15.5-5.82 1.21-10.63 1.08-14.21-.43-3.41-1.44-5.75-4.2-6.8-8.32-.05-.21-.1-.42-.14-.6 1.01-56.41 19.85-65.79 19.9-65.82.76-.4 1.06-1.35.65-2.11-.4-.76-1.35-1.06-2.11-.65-.06.03-20.57 10.27-21.57 68.72zm112.78-74.75c.39-.77.07-1.71-.7-2.09-.4-.2-.85-.21-1.24-.07-.02.01-6.24 2.41-12.24 1.52-.85-.12-1.65.47-1.77 1.32-.12.86.47 1.65 1.32 1.78 2.48.37 4.99.24 7.17-.07-.08.2-.12.42-.11.66.04.86.77 1.53 1.63 1.49 3.79-.17 5.95-4.53 5.95-4.54z" class="shp1"/>
    <path id="Path 13" d="M73.01 107.39l-24.03-4.65S35 117.91 40.43 145.08c0 0 12.87 8.12 36.65.89 0 0-6.8-19.01-4.07-38.57z" class="shp3"/>
    <path id="Path 14" d="M38.89 145.38c.1.49.41.87.82 1.08 1.24.73 14.51 8.08 37.82.99.82-.25 1.29-1.12 1.04-1.95l-.02-.06c-.02-.05-6.67-18.65-4-37.85.12-.85-.48-1.64-1.33-1.76-.85-.12-1.64.48-1.76 1.33-2.31 16.61 2.08 32.77 3.63 37.74-19.27 5.43-30.64.52-33.26-.85-4.9-25.94 8.27-40.24 8.31-40.28.58-.64.53-1.63-.12-2.21-.64-.58-1.63-.53-2.21.12-.04.05-14.51 15.75-8.92 43.69zm16.4-27.58a1.56 1.56 0 0 0-.39 2.18c.49.71 1.47.89 2.18.39l16.83-11.7c.71-.49.88-1.47.39-2.18a1.56 1.56 0 0 0-2.18-.39z" class="shp1"/>
    <path id="Path 15" d="M56.18 119.09l-7.21-16.35c.16 10.49 7.21 16.35 7.21 16.35z" class="shp3"/>
    <path id="Path 16" d="M50.54 102.72c-.01-.86-.72-1.55-1.58-1.54-.86.01-1.55.72-1.54 1.58.17 11.21 7.74 17.51 7.76 17.53.66.56 1.65.47 2.2-.18.56-.66.47-1.65-.18-2.2-.02-.01-6.51-5.41-6.66-15.18z" class="shp1"/>
    <path id="Path 17" d="M91.15 79.27L86.01 93.9c8.68 2.02 13.72-11.44 5.14-14.63z" class="shp2"/>
    <path id="Path 18" d="M93.98 84.92c.1.92-.01 1.88-.3 2.8-.3.94-.78 1.83-1.41 2.59-1.37 1.64-3.46 2.64-5.91 2.07a1.559 1.559 0 0 0-.69 3.04c3.75.87 6.94-.64 9.01-3.12.89-1.07 1.57-2.32 1.99-3.64.42-1.34.59-2.74.44-4.09-.32-2.87-1.98-5.49-5.4-6.76a1.562 1.562 0 1 0-1.09 2.93c2.15.8 3.19 2.41 3.38 4.18z" class="shp1"/>
    <path id="Path 19" d="M33.3 67c-3.17 9.39-5.52 35.31 26.59 38.82 24.35 2.67 27.71-15.75 32.58-32.58-2.23 7.84-14.64 1.67-12.6-8.59-7.73 4.6-16.69-.2-18.64-8.56l-.04.04c-5.2 7.27-19.47 15.3-27.9 10.86z" class="shp2"/>
    <path id="Path 20" d="M60.26 55.28l.01-.01.02-.02 1.63-1.8.55 2.37c.31 1.33.81 2.56 1.46 3.64 1.25 2.11 3.08 3.75 5.18 4.73 2.09.96 4.45 1.27 6.83.72 1.1-.26 2.19-.69 3.27-1.33l2.46-1.47-.56 2.8c-.78 3.9.8 7.12 3 8.97.75.63 1.57 1.1 2.39 1.38.77.26 1.53.35 2.2.23 1.13-.19 2.08-1 2.53-2.58v-.01l2.44.7c-.02.09-.05.18-.08.26-.24.84-.57 2.02-.91 3.19-4.59 16.3-9.2 32.64-32.96 30.04-3.87-.42-7.27-1.17-10.23-2.17-8.79-2.96-13.82-8.15-16.52-13.91-2.68-5.71-3.03-11.94-2.47-17.06.32-2.9.93-5.45 1.57-7.36l.48-1.42 1.32.69c3.46 1.82 8.11 1.28 12.63-.48 5.6-2.18 10.93-6.2 13.64-10l.04-.05zm1.49 5.47c-.38-.64-.72-1.32-1.01-2.03-3.19 3.56-8.15 7.04-13.3 9.04-4.59 1.79-9.39 2.43-13.34.97-.43 1.55-.82 3.42-1.04 5.48-.52 4.75-.21 10.5 2.25 15.72 2.43 5.18 7 9.86 15.03 12.57 2.79.94 6.01 1.65 9.69 2.05 20.94 2.29 25.65-11.97 29.83-26.74-.23.07-.47.13-.72.17-1.1.18-2.28.06-3.44-.33-1.1-.37-2.21-1-3.21-1.84a11.588 11.588 0 0 1-4.11-9.01c-.61.24-1.23.43-1.85.57-2.95.68-5.88.31-8.47-.89-2.57-1.18-4.78-3.18-6.3-5.73z" class="shp1"/>
    <path id="Path 21" d="M66.97 91.28v-.04c-1.82.3-3.66.46-5.51.46-1.05 0-2.11-.05-3.16-.15-2.9-.27-5.74-.91-8.45-1.9v.03c-.22 2.28.47 4.51 1.94 6.28a8.593 8.593 0 0 0 5.83 3.08 8.538 8.538 0 0 0 9.35-7.75z" class="shp4"/>
    <path id="Path 22" d="M58.45 89.99c1.01.09 2.02.14 3.01.14 2.41 0 4.77-.27 7.05-.79.08.67.08 1.37.02 2.07-.49 5.27-4.92 9.22-10.11 9.22-.32 0-.64-.02-.96-.05-5.6-.52-9.71-5.48-9.18-11.06.06-.7.19-1.38.4-2.03 3.03 1.3 6.3 2.17 9.76 2.49zm-5.46 4.96a7.004 7.004 0 0 0 5.44 2.55c2.95 0 5.48-1.8 6.52-4.41-1.15.11-2.32.17-3.48.17-1.09 0-2.2-.05-3.3-.15-2.26-.21-4.49-.64-6.65-1.27.22 1.13.73 2.2 1.48 3.12z" class="shp1"/>
    <path id="Path 23" d="M72.15 40.48c2.12-2.42 5.65-2.38 9.99-2.23 1.59-5.45 9.14-20.83 14.63-29.4-3.9 1.04-14.56 7.33-14.56 7.33l2.22-14.27-8.42 13.48-7.38-10.86c1.79 11.95-4.04 32.32-4.04 32.32 5.72-1.12 7.57 3.63 7.57 3.63z" class="shp3"/>
    <path id="Path 24" d="M63.09 36.36c.36-1.26 5.67-20.36 3.98-31.61-.12-.86.47-1.65 1.32-1.78.66-.1 1.28.23 1.59.78l5.97 8.78L83.1 1.08a1.56 1.56 0 0 1 2.15-.5c.58.36.84 1.04.7 1.67l-1.7 10.95c3.5-1.97 9.35-5.13 12.11-5.87.83-.22 1.69.27 1.92 1.11.12.46.03.93-.23 1.3-2.64 4.13-5.77 9.87-8.48 15.31-2.82 5.68-5.16 10.96-5.94 13.64-.2.7-.85 1.15-1.55 1.13-2.09-.07-3.98-.12-5.53.13-1.34.22-2.45.67-3.23 1.56a1.556 1.556 0 0 1-2.62-.44c0-.01-1.38-3.54-5.82-2.68a1.569 1.569 0 0 1-1.79-2.03zm7.43-26.26c-.08 9.31-2.68 20.42-3.86 25.02 2.97.12 4.82 1.69 5.86 3 1.04-.66 2.22-1.05 3.54-1.26 1.5-.24 3.16-.25 4.95-.2 1.06-3.06 3.23-7.91 5.76-13 1.94-3.91 4.12-7.99 6.18-11.54-4.43 2.16-9.94 5.4-9.96 5.42-.3.18-.66.25-1.03.2a1.56 1.56 0 0 1-1.3-1.78l1.05-6.73-4.38 7.01a1.564 1.564 0 0 1-2.62.05zM36.71 53.35c.75.43 1.01 1.39.58 2.14a1.57 1.57 0 0 1-2.14.58c-1.12-.64-2.08-.51-2.78.07-.71.59-1.24 1.6-1.47 2.77a6.67 6.67 0 0 0 .35 3.83c.88 2.13 3.11 4.2 7.26 4.27.86.01 1.54.42 1.53 1.29-.01.86-.6 1.21-1.46 1.2-5.67-.09-8.92-2.38-10.23-5.56-.76-1.83-.88-3.84-.52-5.63.37-1.85 1.27-3.5 2.54-4.55 1.68-1.4 3.89-1.79 6.33-.39z" class="shp1"/>
    <path id="Path 25" d="M88.35 181.47c.49-1.46 1.56-2.52 3.01-3.01.6-.2.6-.42 0-.62-1.45-.49-2.51-1.56-3.01-3-.2-.6-.42-.6-.61 0-.5 1.45-1.55 2.51-3.02 3-.59.2-.59.42 0 .62 1.46.49 2.52 1.55 3.02 3.01.2.59.41.59.61 0zm-.3 26.77c.92-.83 2.08-1.16 3.3-.93.5.1.59-.06.25-.43-.83-.92-1.16-2.08-.93-3.3.1-.5-.05-.59-.42-.24-.93.82-2.09 1.16-3.31.93-.5-.1-.58.06-.24.43.83.92 1.16 2.08.93 3.3-.09.5.06.58.44.24zm-41.63-40.85c-.46-1.71-.13-3.41.95-4.81.44-.58.3-.78-.4-.59-1.71.47-3.4.13-4.81-.95-.57-.44-.78-.3-.59.39.46 1.71.13 3.41-.94 4.81-.44.57-.3.78.39.59 1.71-.46 3.41-.13 4.81.94.58.44.78.3.59-.39zm-9.75 20.78c-.28-1.04-.08-2.07.58-2.93.27-.36.19-.48-.24-.36-1.04.28-2.07.07-2.93-.58-.35-.27-.47-.18-.36.24.28 1.04.08 2.07-.58 2.93-.27.35-.18.48.24.36 1.04-.28 2.07-.08 2.93.57.35.27.48.19.36-.24zm14.07-8.2a3.27 3.27 0 0 1 .57-2.93c.26-.35.18-.48-.24-.36-1.04.28-2.07.08-2.93-.58-.35-.27-.47-.19-.37.24.28 1.04.08 2.07-.57 2.93-.27.35-.19.48.24.36 1.05-.28 2.08-.08 2.93.57.35.27.47.19.36-.24zm21.13-13.41c.4-1 1.18-1.71 2.21-2.01.42-.12.43-.27.02-.43a3.3 3.3 0 0 1-2-2.21c-.12-.43-.27-.44-.44-.02-.4 1.01-1.17 1.71-2.21 2-.42.12-.43.27-.02.43 1 .4 1.71 1.18 2.01 2.22.11.42.27.43.43.02z" class="shp4"/>
    <path id="Path 26" d="M43.44 89.83c1.59-.16 2.57-1.14.8-3.1-1.58-1.74-7.15-1.92-5.1 1.43.74 1.22 2.8 1.82 4.31 1.67zm31.61 5.61c1.54-.4 2.37-1.52.31-3.18-1.82-1.47-7.35-.8-4.82 2.2.92 1.09 3.05 1.37 4.51.98z" style="mix-blend-mode:multiply" fill="#f9c9c0"/>
    <path id="Path 27" d="M75.86 77.71c-.96-2.59-3.85-3.91-6.44-2.95-2.6.97-3.92 3.85-2.95 6.44a5.025 5.025 0 0 0 6.45 2.95 5.012 5.012 0 0 0 2.94-6.45z" class="shp4"/>
    <path id="Path 28" d="M66.47 81.21c.55 1.49 1.75 2.54 3.15 3 .1-.03.2-.04.29-.08a5.01 5.01 0 0 0 2.96-6.44c-.55-1.49-1.75-2.54-3.16-3-.09.03-.19.04-.29.08-2.6.97-3.92 3.85-2.95 6.45z" class="shp1"/>
    <path id="Path 29" d="M50.85 74.92a5.002 5.002 0 0 0-6.44-2.95c-2.59.96-3.92 3.85-2.95 6.44.96 2.6 3.85 3.92 6.44 2.95 2.6-.96 3.92-3.85 2.95-6.44z" class="shp4"/>
    <path id="Path 30" d="M41.46 78.41a5.007 5.007 0 0 0 3.15 3c.1-.03.19-.04.29-.08 2.59-.97 3.92-3.85 2.95-6.44a5.007 5.007 0 0 0-3.15-3c-.1.03-.2.04-.3.08-2.59.96-3.92 3.85-2.95 6.44z" class="shp1"/>
    <path id="Path 31" d="M12.55 67.13C2.46 67.75.85 79.35 1.98 87.34c.8 5.64 6.3 24.47 15.56 16.73 5.62-4.7 6.75-13.76 6.27-20.69-.43-6.16-3.47-16.73-11.26-16.25z" class="shp3"/>
    <path id="Path 32" d="M11.35 65.68c.36-.05.73-.09 1.11-.11 3.9-.24 6.77 1.78 8.81 4.73 2.62 3.79 3.84 9.18 4.1 12.98.28 4.02.03 8.74-1.26 13.01-1.06 3.5-2.82 6.69-5.57 8.99-1.07.9-2.13 1.5-3.16 1.84-2.6.87-4.89.14-6.87-1.53-1.75-1.48-3.22-3.72-4.4-6.17C2.04 95.13.78 90.08.42 87.56c-.12-.83-.21-1.7-.26-2.6-.24-3.92.19-8.3 1.78-11.89 1.69-3.8 4.64-6.72 9.4-7.39zm1.3 3.01c-.3.02-.59.05-.87.09-3.5.49-5.7 2.69-6.97 5.55-1.37 3.08-1.73 6.94-1.51 10.44.05.81.13 1.6.24 2.35.33 2.32 1.49 6.96 3.41 10.93 1.01 2.1 2.22 3.98 3.6 5.14 1.16.98 2.45 1.42 3.86.95.66-.22 1.37-.64 2.14-1.28 2.23-1.87 3.69-4.54 4.58-7.5 1.17-3.85 1.39-8.18 1.13-11.89-.23-3.38-1.29-8.15-3.55-11.41-1.46-2.11-3.44-3.55-6.06-3.39z" class="shp1"/>
    <path id="Path 33" d="M16.17 105.53l-2.53.77c-2.32 4.99-.11 26.37 4.79 29.98 8.31-.56-.59-27.19-2.26-30.75z" class="shp3"/>
    <path id="Path 34" d="M12.22 105.64a1.576 1.576 0 0 1 2.44-.53c.12-.42.41-.79.84-1 .78-.37 1.71-.03 2.08.75 1.1 2.35 5.27 14.48 5.84 22.97.14 2.13.06 4.07-.33 5.63-.47 1.85-1.37 3.24-2.86 3.93-.52.24-1.09.39-1.7.43-.36.02-.72-.07-1.03-.3-2.62-1.93-4.5-7.76-5.49-13.97-1.14-7.13-1.16-14.99.21-17.93zm2.85 1.3l-.01.02c-1.13 2.43-1.02 9.51.03 16.12.81 5.05 2.12 9.69 3.79 11.51l.03-.01c.54-.25.9-.92 1.14-1.86.31-1.23.37-2.84.24-4.67-.5-7.43-3.86-17.73-5.22-21.12z" class="shp1"/>
    <path id="Path 35" d="M22.25 118.08c.71-1.61 2.49-4.69-.09-6.98-1.13-1-5.21-1.59-6.1-.23-1.27 1.94 4.39 6.44 6.19 7.21z" class="shp2"/>
    <path id="Path 36" d="M23.88 118.27c-.06.12-.11.23-.18.4l-.02.03c-.34.79-1.26 1.16-2.06.82-.37-.16-.83-.42-1.35-.76-1.21-.79-2.8-2.07-4-3.38-1.48-1.63-2.41-3.43-1.75-4.96v-.01c.06-.14.13-.28.21-.4.04-.06.08-.12.13-.18.03-.05.07-.09.11-.14.86-.97 2.46-1.28 4.04-1.17 1.4.09 2.89.52 3.76 1.09.16.11.3.21.42.31 3.22 2.86 1.65 6.25.68 8.34zm-2.35-2.45c.44-1.19.69-2.59-.4-3.56l-.04-.03c-.45-.29-1.35-.52-2.26-.59-.63-.04-1.19-.03-1.42.08.06.24.55.85 1.19 1.55.86.95 1.98 1.88 2.93 2.55z" class="shp1"/>
    <path id="Path 37" d="M14.11 114.52c.09-.52.16-1.06.31-1.57.49-1.61 2.62-4.34 1.58-6.09-1.09-1.86-4.32-.41-5.54.47-2.73 1.97-4.5 5.25-4.64 8.67-.13 2.79.7 4.89 3.47 8.04l4.05-2.12c-.63-5.39.6-6.52.77-7.41z" class="shp2"/>
    <path id="Path 38" d="M7.91 119.3c-.44-1.03-.58-2.05-.53-3.21v-.03c.07-1.46.48-2.9 1.17-4.18a9.572 9.572 0 0 1 2.83-3.26c.11-.08.24-.16.39-.25.57-.33 1.34-.68 2.06-.8.39-.06.72-.07.82.07.01.02-.01-.01.01.03l.02.04c.26.53-.39 1.83-.94 2.94-.33.67-.64 1.29-.82 1.88-.01.04-.02.08-.03.11-.12.44-.19.84-.25 1.24l-.01.05-.05.33c0 .01-.06.14-.13.31-.44 1.06-1.2 2.9-.66 7.56.1.86.87 1.47 1.73 1.38.86-.1 1.48-.87 1.38-1.73-.45-3.86.11-5.22.44-6 .13-.32.24-.59.31-.95v-.01l.07-.39.01-.05c.05-.31.1-.62.17-.86l.03-.09c.11-.35.35-.85.62-1.39.9-1.8 1.94-3.91.86-5.86a.218.218 0 0 0-.05-.08c-.04-.06-.1-.16-.18-.27-.94-1.3-2.37-1.56-3.84-1.33-1.14.18-2.32.7-3.15 1.19-.24.14-.45.28-.63.41a12.748 12.748 0 0 0-3.76 4.33c-.9 1.69-1.45 3.59-1.53 5.53v.02c-.07 1.62.14 3.06.77 4.56.61 1.44 1.59 2.89 3.08 4.58a1.566 1.566 0 0 0 2.35-2.07c-1.27-1.45-2.09-2.63-2.56-3.72z" class="shp1"/>
    <path id="Path 39" d="M12.33 72.83c-6.56.15-7.3 8.21-6.34 13.82.68 3.96 4.79 17.26 10.61 12.11 3.53-3.13 4.02-9.42 3.52-14.27-.45-4.31-2.73-11.78-7.79-11.66z" class="shp4"/>
    <path id="Path 40" d="M11.1 71.89c.37-.06.77-.1 1.21-.11 2.54-.06 4.46 1.41 5.86 3.5 1.8 2.69 2.73 6.46 3.01 9.1.29 2.8.26 6.08-.46 9.01-.59 2.42-1.66 4.61-3.4 6.15-.63.56-1.27.94-1.89 1.17-1.68.61-3.19.14-4.53-.99-1.17-.99-2.18-2.5-3.02-4.17-1.58-3.13-2.6-6.89-2.91-8.72-.12-.7-.21-1.45-.28-2.22-.05-.13-.08-.26-.08-.41 0-.1.01-.19.04-.28l-.03-.72c-.06-2.45.26-4.99 1.2-7.04 1-2.19 2.68-3.83 5.29-4.28zm.35 2.08c-1.82.31-3.01 1.49-3.73 3.07-.72 1.59-1.01 3.58-1.02 5.57.12-.08.25-.16.39-.25.7-.46 1.46-1.06 2.05-1.68.4-.42 1.07-.44 1.49-.04.18.17.28.39.32.61l.04.25c.56 3.41 1.05 6.45-2.95 8.85.42 1.29.95 2.68 1.58 3.97 1.67-1.95 2.56-4.75 2.92-7.74.52-4.35-.08-9.09-1.04-12.42-.02-.07-.03-.14-.04-.2zm-4.42 12.5c.08.47.21 1.07.38 1.75 1.74-1.31 1.92-2.93 1.73-4.74-.3.23-.6.44-.9.64-.5.33-.99.6-1.43.8.05.53.13 1.05.21 1.55zm5.22 11.65c.76.65 1.59.93 2.45.62.38-.14.79-.39 1.21-.77 1.38-1.23 2.25-3.05 2.75-5.08.66-2.67.68-5.69.41-8.3-.25-2.39-1.08-5.77-2.66-8.14-.75-1.12-1.66-1.99-2.76-2.37.95 3.52 1.51 8.33.98 12.75-.44 3.66-1.62 7.09-3.94 9.43.48.74 1 1.38 1.55 1.85z" class="shp1"/>
    <path id="Path 41" fill="none" stroke="#2c2e35" stroke-width=".4" d="M107.4 128.36c.12-3.31-.71-6.26-1.55-9.21-.42-1.47-.83-2.94-1.1-4.39-.38-2.05-.3-4.11.1-6.13.41-2.06 1.15-4.08 2.1-6.01.54-1.1 1.14-2.23 1.75-3.37 1.85-3.48 3.74-7.02 4.56-10.95.63-3.03.69-6.38.27-9.67-.42-3.35-1.35-6.65-2.67-9.52-.01-.03-.02-.06-.04-.09-1.08-2.32-2.5-4.48-3.91-6.62-1.48-2.25-2.96-4.5-3.98-6.91-1.04-2.46-.81-4.98-.58-7.49.21-2.24.41-4.47-.15-6.86l-.01-.08c-.43-1.79-1.28-3.48-2.37-4.99-1.18-1.64-2.67-3.08-4.24-4.21a20.038 20.038 0 0 0-5.09-2.64c-.85-.3-1.72-.54-2.59-.73.53-1.11 1.09-2.26 1.67-3.43 2.7-5.44 5.84-11.18 8.48-15.31.25-.36.35-.83.23-1.29a1.573 1.573 0 0 0-1.92-1.11c-2.77.74-8.61 3.9-12.11 5.87l1.7-10.95c.14-.63-.12-1.31-.7-1.68-.73-.46-1.7-.23-2.16.5l-7.15 11.45-5.96-8.78c-.31-.55-.93-.87-1.59-.78-.85.13-1.45.92-1.32 1.78.8 5.31.03 12.35-1.03 18.46-1.83-.44-3.79-.55-5.78-.37-2.29.2-4.62.79-6.84 1.68-5.49 2.21-10.39 6.38-12.46 11.52-7.93-.38-14.5 4.13-18.46 10.16-1.68 2.55-2.89 5.39-3.53 8.25-.65 2.89-.73 5.82-.12 8.51 1.13 5.05 4.6 9.22 11.02 10.82l.08.02c.2.05.31.58.48 1.28-.39 4.89.09 10.64 2.58 15.94 2.35 5 6.47 9.58 13.28 12.64l-.06.08c-9.53 2.49-19.37 13.57-23.52 18.71-.17-.93-.37-1.86-.57-2.8.65.05 1.28-.31 1.56-.94l.01-.03c.07-.17.12-.27.18-.4.97-2.09 2.53-5.48-.68-8.34-.11-.1-.25-.21-.42-.31-.87-.57-2.36-.99-3.75-1.09h-.06a55.74 55.74 0 0 0-1.02-2.78c.2-.15.4-.3.59-.47 2.74-2.29 4.5-5.49 5.57-8.99 1.29-4.27 1.54-8.99 1.26-13.01-.26-3.79-1.48-9.19-4.1-12.98-2.05-2.95-4.92-4.97-8.81-4.73-.38.02-.75.06-1.11.11-4.75.67-7.7 3.59-9.39 7.39C.37 76.68-.05 81.06.19 84.98c.06.9.15 1.77.26 2.6.36 2.52 1.61 7.57 3.69 11.86 1.18 2.45 2.65 4.69 4.4 6.17.27.23.55.44.83.63a12.805 12.805 0 0 0-3.56 4.18 13.11 13.11 0 0 0-1.53 5.53v.02c-.07 1.62.14 3.06.77 4.56.32.75.74 1.51 1.28 2.29.17.33.36.65.56.96l.09.12c.25.33.7.77 1.17 1.23.24.26.56.42.89.48.07 2.7.66 5.94 1.42 9.05 1.45 5.92 3.56 11.54 3.72 11.82l.01.01c.14.24.33.44.58.6v.01c.58.38 2.07.59 4.06.17 1.67-.36 3.91-1.15 6.49-2.65 3.56-2.06 7.84-5.51 12.31-11.09.04 3.36.37 6.96 1.08 10.81-4.14 2.95-19.69 17.37-20.56 68.08 0 .12.01.23.03.34.07.33.14.63.21.89v.01c1.3 5.13 4.26 8.59 8.62 10.42 3.07 1.29 6.81 1.74 11.13 1.36.11.64.21 1.28.32 1.94 1.63 9.72 3.59 21.43.07 27.65-.84 1.48-1.97 2.94-3.09 4.39-1.45 1.87-2.9 3.75-3.94 5.88-.43.87-.88 1.89-1.13 3-.29 1.28-.29 2.61.33 3.87 1.31 2.66 3.96 2.67 6.66 2.68.95 0 1.92.01 2.67.18 1.44.33 2.56.5 3.66.31 1.24-.21 2.26-.83 3.3-2.06 1.96-2.31 3.75-4.52 5.33-6.79 1.61-2.31 3.01-4.72 4.15-7.41 1.46-3.45 1.2-7.11.94-10.71-.15-2.09-.3-4.16-.06-6.03.55-4.37.87-8.72 1.07-13.07.39.01.79.02 1.19.02 6.39.01 13.58-1.56 19.38-4.92 1.86.44 3.62.64 5.31.64a51.16 51.16 0 0 1 1.82 3.71c1.19 2.71 2.21 5.66 3.08 8.7.96 3.38 1.72 6.83 2.28 10.12.94 5.53.52 11.59.11 17.63l-.01.12-.01.07c-.22 3.15-.56 8.08 2.86 10.02 2.18 1.24 4.26.05 6.14-1.03v.01l.42-.24.03-.02c.37-.21.68-.37.97-.53 1.66-.9 3.28-1.77 4.69-3.36 1.61-1.82 2.64-6.26 3.13-10.82.58-5.44.4-11.35-.52-13.19h.01c-1.11-2.22-1.56-4.92-2.02-7.62-.29-1.71-.57-3.42-1.05-5.13-1.61-5.87-3.24-11.49-5.05-16.9 1.65-1.99 2.93-4.09 3.82-6.03.18-.4.18-.83.04-1.21-2.44-6.35-3.47-13.22-4.52-20.17-1.92-12.72-3.89-25.72-14.26-37.08.15-.03.3-.07.44-.11 4.58-1.13 9.06-3.59 12.66-6.96 3.66 1.65 7.7 3.22 12.13 4.62 3.86 4.96 6.23 7 7.75 7.13 2.1.19 2.78-1.4 2.86-3.98.93.1 1.85.12 2.72.05 2.06-.17 3.92-.84 5.41-2.01 1.52-1.19 2.63-2.87 3.14-5.05.29-1.22.38-2.6.26-4.12h-.01v-.01a1.56 1.56 0 0 0-1.7-1.41c-.93.09-1.9.1-2.89.04 1.21-1.21 1.86-2.52 1.86-2.53.39-.77.07-1.71-.7-2.09-.4-.2-.85-.21-1.24-.07-.02.01-6.03 2.34-11.94 1.57-.66-.28-1.32-.57-1.98-.87-2.79-1.28-5.52-2.77-8.07-4.31.24-1.15.39-2.33.43-3.54z"/>
  </g>
</svg>