<svg xmlns="http://www.w3.org/2000/svg"><symbol id="Icon-Facebook"><path d="M1.31 14.19h2.87v11.43c0 .23.19.41.42.41h4.86c.23 0 .42-.18.42-.41V14.24h3.29c.21 0 .39-.16.42-.36l.5-4.21a.413.413 0 0 0-.41-.46H9.89V6.57c0-.79.44-1.2 1.31-1.2h2.48c.23 0 .42-.18.42-.41V1.1c0-.23-.19-.41-.42-.41H10.1c-.59 0-2.65.11-4.28 1.56-1.8 1.61-1.55 3.54-1.49 3.87V9.2H1.32c-.23 0-.42.18-.42.41v4.15c0 .23.19.41.42.41z"/></symbol><symbol id="Icon-Ok"><path d="M6.68 18.02c-1.9-.21-3.61-.69-5.07-1.88-.19-.14-.37-.29-.54-.45-.64-.64-.71-1.37-.2-2.12.44-.64 1.16-.81 1.92-.44.15.07.29.16.42.25 2.73 1.94 6.48 2 9.22.09.27-.21.56-.39.9-.48.65-.17 1.26.08 1.61.67.4.67.4 1.33-.09 1.86-.76.8-1.67 1.38-2.69 1.79-.95.38-2 .58-3.04.7.16.18.23.27.33.37 1.41 1.46 2.82 2.92 4.23 4.39.48.5.58 1.12.31 1.7-.29.64-.93 1.06-1.56 1.01-.4-.03-.72-.23-.99-.52-1.07-1.11-2.15-2.2-3.19-3.32-.31-.33-.45-.27-.72.02a207.45 207.45 0 0 1-3.25 3.37c-.49.5-1.08.59-1.65.31-.6-.31-.99-.95-.96-1.59.02-.43.23-.77.52-1.06 1.39-1.44 2.78-2.89 4.18-4.33.09-.09.17-.2.31-.34zM7.83 13c-3.38-.01-6.16-2.91-6.14-6.42C1.71 3.04 4.49.19 7.91.19c3.42.01 6.17 2.91 6.15 6.49-.01 3.5-2.81 6.33-6.23 6.32zm3.08-6.41c-.01-1.74-1.35-3.12-3.03-3.12-1.69-.01-3.04 1.4-3.03 3.16.01 1.73 1.37 3.11 3.05 3.1 1.68 0 3.02-1.4 3.01-3.14z"/></symbol><symbol id="Icon-Twitter"><path d="M22.14 2.09c-.35.15-.7.28-1.06.38.43-.48.76-1.05.96-1.67.05-.14 0-.29-.12-.38a.366.366 0 0 0-.4-.03c-.77.45-1.6.78-2.48.97A4.778 4.778 0 0 0 15.73.02c-2.61 0-4.72 2.1-4.72 4.69 0 .2.01.41.04.6-3.23-.28-6.24-1.86-8.3-4.37a.351.351 0 0 0-.3-.13c-.12.01-.22.07-.28.17a4.664 4.664 0 0 0 .49 5.4c-.22-.08-.43-.17-.63-.28a.363.363 0 0 0-.35 0c-.11.06-.18.17-.18.3v.06c0 1.68.91 3.2 2.31 4.03-.12-.01-.24-.03-.36-.05a.367.367 0 0 0-.33.11c-.08.09-.11.22-.07.34.52 1.6 1.85 2.78 3.46 3.14a8.407 8.407 0 0 1-4.47 1.26c-.33 0-.67-.02-1-.06a.37.37 0 0 0-.38.23c-.06.15 0 .33.14.42 2.06 1.31 4.44 2 6.89 2 4.81 0 7.82-2.25 9.49-4.14 2.09-2.35 3.29-5.47 3.29-8.54 0-.13 0-.26-.01-.39.83-.62 1.54-1.36 2.11-2.22.09-.13.08-.3-.02-.42a.368.368 0 0 0-.42-.1z"/></symbol></svg>