<svg xmlns="http://www.w3.org/2000/svg" width="23" height="18"><path d="M22.14 2.09c-.35.15-.7.28-1.06.38.43-.48.76-1.05.96-1.67.05-.14 0-.29-.12-.38a.366.366 0 0 0-.4-.03c-.77.45-1.6.78-2.48.97A4.778 4.778 0 0 0 15.73.02c-2.61 0-4.72 2.1-4.72 4.69 0 .2.01.41.04.6-3.23-.28-6.24-1.86-8.3-4.37a.351.351 0 0 0-.3-.13c-.12.01-.22.07-.28.17a4.664 4.664 0 0 0 .49 5.4c-.22-.08-.43-.17-.63-.28a.363.363 0 0 0-.35 0c-.11.06-.18.17-.18.3v.06c0 1.68.91 3.2 2.31 4.03-.12-.01-.24-.03-.36-.05a.367.367 0 0 0-.33.11c-.08.09-.11.22-.07.34.52 1.6 1.85 2.78 3.46 3.14a8.407 8.407 0 0 1-4.47 1.26c-.33 0-.67-.02-1-.06a.37.37 0 0 0-.38.23c-.06.15 0 .33.14.42 2.06 1.31 4.44 2 6.89 2 4.81 0 7.82-2.25 9.49-4.14 2.09-2.35 3.29-5.47 3.29-8.54 0-.13 0-.26-.01-.39.83-.62 1.54-1.36 2.11-2.22.09-.13.08-.3-.02-.42a.368.368 0 0 0-.42-.1z"/></svg>