<svg xmlns="http://www.w3.org/2000/svg" width="16" height="26"><path d="M6.68 18.02c-1.9-.21-3.61-.69-5.07-1.88-.19-.14-.37-.29-.54-.45-.64-.64-.71-1.37-.2-2.12.44-.64 1.16-.81 1.92-.44.15.07.29.16.42.25 2.73 1.94 6.48 2 9.22.09.27-.21.56-.39.9-.48.65-.17 1.26.08 1.61.67.4.67.4 1.33-.09 1.86-.76.8-1.67 1.38-2.69 1.79-.95.38-2 .58-3.04.7.16.18.23.27.33.37 1.41 1.46 2.82 2.92 4.23 4.39.48.5.58 1.12.31 1.7-.29.64-.93 1.06-1.56 1.01-.4-.03-.72-.23-.99-.52-1.07-1.11-2.15-2.2-3.19-3.32-.31-.33-.45-.27-.72.02a207.45 207.45 0 0 1-3.25 3.37c-.49.5-1.08.59-1.65.31-.6-.31-.99-.95-.96-1.59.02-.43.23-.77.52-1.06 1.39-1.44 2.78-2.89 4.18-4.33.09-.09.17-.2.31-.34zM7.83 13c-3.38-.01-6.16-2.91-6.14-6.42C1.71 3.04 4.49.19 7.91.19c3.42.01 6.17 2.91 6.15 6.49-.01 3.5-2.81 6.33-6.23 6.32zm3.08-6.41c-.01-1.74-1.35-3.12-3.03-3.12-1.69-.01-3.04 1.4-3.03 3.16.01 1.73 1.37 3.11 3.05 3.1 1.68 0 3.02-1.4 3.01-3.14z"/></svg>